Coordinates
version=1
nRows=19
nColumns=24
inDegrees=yes

Units are S.I. units (second, meters, Newtons, ...)
Angles are in degrees.

endheader
time	pelvis_tilt	pelvis_list	pelvis_rotation	pelvis_tx	pelvis_ty	pelvis_tz	hip_flexion_r	hip_adduction_r	hip_rotation_r	knee_angle_r	ankle_angle_r	subtalar_angle_r	mtp_angle_r	hip_flexion_l	hip_adduction_l	hip_rotation_l	knee_angle_l	ankle_angle_l	subtalar_angle_l	mtp_angle_l	lumbar_extension	lumbar_bending	lumbar_rotation
      0.48000000	      5.73028513	      1.22511050	      1.52513942	     -0.84169558	      1.01551566	      0.29665186	     13.07489289	     -1.59264864	    -10.99260008	      3.76570681	      1.74382574	     -7.79064287	     -0.57889655	    -17.35441237	      2.67418611	     -0.61111895	     -7.80822309	      8.73564334	    -19.24717791	     -0.77970018	    -18.01590247	      0.02827857	     -2.27483051
      0.48416667	      5.99271655	      1.07210665	      1.65792333	     -0.83583691	      1.01513546	      0.29654946	     12.82428602	     -1.45456355	    -11.01965055	      3.40061224	      1.54563044	     -7.79378880	     -0.80198417	    -17.78423431	      2.43728690	     -0.59127502	     -8.24284522	      9.00979493	    -19.02258687	     -1.35868112	    -18.29057302	      0.32274249	     -2.43309425
      0.48833333	      6.15260888	      1.01929669	      1.71225747	     -0.83017756	      1.01459621	      0.29658635	     12.76423267	     -1.41709698	    -10.91877674	      2.85644126	      1.43515546	     -7.78646203	     -0.84381107	    -18.07285140	      2.33827290	     -0.52225061	     -8.72751646	      9.21188668	    -18.96273435	     -1.50617704	    -18.47956264	      0.46184365	     -2.39147782
      0.49250000	      6.50946007	      0.81616813	      1.76862363	     -0.82420607	      1.01439413	      0.29660787	     12.41270614	     -1.20163344	    -10.89774590	      2.40067086	      1.16185135	     -7.79997085	     -0.91465069	    -18.59637865	      2.06090019	     -0.62960856	     -9.19123818	      9.37177708	    -18.73744244	     -1.92269479	    -18.84048736	      0.80479374	     -2.45484162
      0.49666667	      6.76584295	      0.68387476	      1.82757539	     -0.81838839	      1.01407672	      0.29668136	     12.20645334	     -1.06535210	    -10.82960578	      1.84671875	      0.89429920	     -7.84878120	     -0.92071419	    -18.95413539	      1.85731254	     -0.67604928	     -9.75229289	      9.55756970	    -18.52509642	     -2.22494282	    -19.11828880	      1.04515916	     -2.47957485
      0.50083333	      6.98092125	      0.57715083	      1.86444943	     -0.81259416	      1.01373294	      0.29680640	     12.05961628	     -0.95174597	    -10.72574166	      1.24041146	      0.58535564	     -7.95990815	     -0.89320752	    -19.24474719	      1.68897307	     -0.70546063	    -10.35699760	      9.67953470	    -18.35619796	     -2.38999739	    -19.35164830	      1.24447767	     -2.48649135
      0.50500000	      7.24336986	      0.40809443	      1.88621137	     -0.80664072	      1.01350027	      0.29698186	     11.81499509	     -0.75693058	    -10.58791975	      0.69441036	      0.17722155	     -8.09352086	     -0.82380105	    -19.57379549	      1.44838745	     -0.84312543	    -10.99758627	      9.78824492	    -18.13510846	     -2.55257415	    -19.62442454	      1.52343908	     -2.50110698
      0.50916667	      7.46713201	      0.26840217	      1.88839707	     -0.80070065	      1.01325475	      0.29718988	     11.62838067	     -0.59146660	    -10.44924455	      0.10201546	     -0.28692268	     -8.28122647	     -0.73780955	    -19.84349691	      1.24846821	     -0.95143703	    -11.67087333	      9.86360613	    -17.93564170	     -2.65733467	    -19.84841173	      1.75694422	     -2.49158138
      0.51333333	      7.71187512	      0.09627551	      1.87396216	     -0.79471012	      1.01307293	      0.29746817	     11.38689370	     -0.37770655	    -10.24715856	     -0.44049456	     -0.79691469	     -8.49959242	     -0.60317439	    -20.10082222	      1.00958473	     -1.13821668	    -12.42381910	      9.89457101	    -17.71897386	     -2.74669947	    -20.09560652	      2.02322687	     -2.47883139
      0.51750000	      7.90071988	     -0.04800087	      1.85303023	     -0.78870997	      1.01287790	      0.29775984	     11.21387997	     -0.19537758	    -10.06220617	     -1.01001746	     -1.36923924	     -8.77528488	     -0.46296120	    -20.26944823	      0.80426845	     -1.30194541	    -13.21704547	      9.88406250	    -17.50583411	     -2.78843586	    -20.27611103	      2.25542922	     -2.44543847
      0.52166667	      8.11614804	     -0.23376786	      1.75823424	     -0.78262745	      1.01273464	      0.29821184	     10.99405185	      0.05463223	     -9.77847870	     -1.54425392	     -1.98016664	     -9.06979823	     -0.23458882	    -20.45472196	      0.56974418	     -1.59598089	    -14.05629155	      9.85754450	    -17.25942055	     -2.79489357	    -20.48722634	      2.50736435	     -2.38713516
      0.52583333	      8.29154979	     -0.36844636	      1.73994025	     -0.77662716	      1.01262792	      0.29852824	     10.81160193	      0.22896801	     -9.59760297	     -2.08260728	     -2.64198906	     -9.40737168	     -0.08092249	    -20.53636726	      0.36740905	     -1.76325591	    -14.98008439	      9.74052722	    -17.06924730	     -2.76429680	    -20.65636603	      2.72266787	     -2.31827963
      0.53000000	      8.45563596	     -0.54460682	      1.65320933	     -0.77051060	      1.01254115	      0.29902062	     10.61806680	      0.47045756	     -9.31847829	     -2.57681943	     -3.33662420	     -9.79039220	      0.10381548	    -20.58790155	      0.13055095	     -2.06815379	    -15.95679516	      9.59221206	    -16.82931236	     -2.69099297	    -20.80298056	      2.95769392	     -2.26238921
      0.53416667	      8.61936869	     -0.74267417	      1.43153541	     -0.76433830	      1.01244513	      0.29976783	     10.44022809	      0.76294548	     -8.90331398	     -3.09379525	     -4.01648885	    -10.18567765	      0.47047028	    -20.63336378	     -0.09703967	     -2.55865086	    -16.97289039	      9.42358003	    -16.53256822	     -2.46877908	    -20.95610337	      3.17050007	     -2.07961293
      0.53833333	      7.78265800	     -0.45248233	      1.65545330	     -0.75910523	      1.01131229	      0.29996175	     11.50811231	      0.38940579	     -8.89563405	     -3.94037495	     -4.59140491	    -10.48700874	      0.66761125	    -19.22678940	      0.08907720	     -2.13859857	    -18.50122154	      9.10969530	    -16.71914506	     -2.30748221	    -20.06940747	      2.94813825	     -2.46432252
      0.54250000	      7.87681199	     -0.58327779	      1.52899288	     -0.75319099	      1.01126593	      0.30059410	     11.40342314	      0.58824830	     -8.58461163	     -4.45634860	     -5.26359730	    -10.92029625	      0.99583636	    -19.04963719	     -0.10606034	     -2.47430823	    -19.72760161	      8.82449451	    -16.51634991	     -1.98305849	    -20.16890293	      3.11081367	     -2.35325428
      0.54666667	      7.92275771	     -0.72295581	      1.48128439	     -0.74718143	      1.01124376	      0.30099518	     11.32640332	      0.76390538	     -8.42875904	     -4.96302360	     -5.87851873	    -11.28042969	      1.18797636	    -18.77943632	     -0.32092956	     -2.69462233	    -21.01291749	      8.42602969	    -16.45642652	     -1.73564382	    -20.19487660	      3.32906932	     -2.25923927
      0.55083333	      7.97850447	     -0.91051886	      1.20872987	     -0.74105497	      1.01120405	      0.30197578	     11.23937239	      1.05733361	     -7.99086220	     -5.44889327	     -6.48199737	    -11.64279076	      1.65121084	    -18.52533281	     -0.56679457	     -3.28074725	    -22.32329921	      7.96676674	    -16.22475290	     -0.98676074	    -20.22643519	      3.49357734	     -1.99597273
      0.55500000	      8.03079747	     -1.05883547	      1.19778405	     -0.73498568	      1.01131264	      0.30229503	     11.10636891	      1.22597156	     -7.92102968	     -5.88600313	     -7.06801025	    -11.94132340	      1.77022311	    -18.17928610	     -0.80915326	     -3.46027894	    -23.73646793	      7.43844523	    -16.25068157	     -0.73041155	    -20.25147600	      3.71568443	     -1.97571574
